<?xml version="1.0" encoding="UTF-8" standalone="no"?>
<!-- Generator: Adobe Illustrator 24.0.3, SVG Export Plug-In . SVG Version: 6.00 Build 0)  -->

<svg
   xmlns:dc="http://purl.org/dc/elements/1.1/"
   xmlns:cc="http://creativecommons.org/ns#"
   xmlns:rdf="http://www.w3.org/1999/02/22-rdf-syntax-ns#"
   xmlns:svg="http://www.w3.org/2000/svg"
   xmlns="http://www.w3.org/2000/svg"
   xmlns:xlink="http://www.w3.org/1999/xlink"
   xmlns:sodipodi="http://sodipodi.sourceforge.net/DTD/sodipodi-0.dtd"
   xmlns:inkscape="http://www.inkscape.org/namespaces/inkscape"
   version="1.0"
   id="Ebene_1"
   x="0px"
   y="0px"
   viewBox="0 0 415.00001 174.1"
   xml:space="preserve"
   sodipodi:docname="Copernicus_Logo_RZ_4c-01.svg"
   width="415"
   height="174.10001"
   inkscape:version="0.92.4 (5da689c313, 2019-01-14)"><metadata
   id="metadata251"><rdf:RDF><cc:Work
       rdf:about=""><dc:format>image/svg+xml</dc:format><dc:type
         rdf:resource="http://purl.org/dc/dcmitype/StillImage" /><dc:title></dc:title></cc:Work></rdf:RDF></metadata><defs
   id="defs249" /><sodipodi:namedview
   pagecolor="#ffffff"
   bordercolor="#666666"
   borderopacity="1"
   objecttolerance="10"
   gridtolerance="10"
   guidetolerance="10"
   inkscape:pageopacity="0"
   inkscape:pageshadow="2"
   inkscape:window-width="1920"
   inkscape:window-height="1137"
   id="namedview247"
   showgrid="false"
   inkscape:zoom="1.1600544"
   inkscape:cx="150.855"
   inkscape:cy="87.050003"
   inkscape:window-x="-8"
   inkscape:window-y="-8"
   inkscape:window-maximized="1"
   inkscape:current-layer="Ebene_1" />
<style
   type="text/css"
   id="style2">
	.st0{fill:#1F619C;stroke:#1F619C;stroke-width:0.809;stroke-miterlimit:10;}
	.st1{fill:none;stroke:#1F619C;stroke-width:1.2944;stroke-linecap:round;stroke-linejoin:round;stroke-miterlimit:10;}
	.st2{fill:#FDC300;}
	.st3{fill:#6AABDE;}
	.st4{fill:#1F619C;}
	.st5{fill:#1F619C;stroke:#FFFFFF;stroke-miterlimit:10;}
	.st6{fill:#005C98;stroke:#FFFFFF;stroke-linecap:round;stroke-linejoin:round;stroke-miterlimit:10;}
	.st7{fill:#1F619C;stroke:#FFFFFF;stroke-linecap:round;stroke-linejoin:round;stroke-miterlimit:10;}
	.st8{fill:none;stroke:#1F619C;stroke-width:0.6329;stroke-linecap:round;stroke-linejoin:round;stroke-miterlimit:10;}
	.st9{fill:#FFFFFF;stroke:#1F619C;stroke-width:0.6329;stroke-miterlimit:10;}
	.st10{fill:#1F619C;stroke:#1F619C;stroke-width:0.301;stroke-miterlimit:10;}
	.st11{fill:#1F619C;stroke:#1F619C;stroke-width:0.3107;stroke-miterlimit:10;}
	.st12{fill:none;stroke:#1F619C;stroke-width:0.497;stroke-linecap:round;stroke-linejoin:round;stroke-miterlimit:10;}
	.st13{fill:#1F619C;stroke:#FFFFFF;stroke-width:0.384;stroke-miterlimit:10;}
	.st14{fill:#005C98;stroke:#FFFFFF;stroke-width:0.384;stroke-linecap:round;stroke-linejoin:round;stroke-miterlimit:10;}
	.st15{fill:#1F619C;stroke:#FFFFFF;stroke-width:0.384;stroke-linecap:round;stroke-linejoin:round;stroke-miterlimit:10;}
</style>
<g
   id="g14"
   transform="translate(122)">
	<g
   id="g10">
		<rect
   x="193.92999"
   y="56.91"
   class="st0"
   width="8.9399996"
   height="14.45"
   id="rect4"
   style="fill:#1f619c;stroke:#1f619c;stroke-width:0.80900002;stroke-miterlimit:10" />
		<rect
   x="207.23"
   y="52.130001"
   class="st0"
   width="8.9399996"
   height="19.24"
   id="rect6"
   style="fill:#1f619c;stroke:#1f619c;stroke-width:0.80900002;stroke-miterlimit:10" />
		<rect
   x="220.52"
   y="32.889999"
   class="st0"
   width="8.9399996"
   height="38.470001"
   id="rect8"
   style="fill:#1f619c;stroke:#1f619c;stroke-width:0.80900002;stroke-miterlimit:10" />
	</g>
	<line
   class="st1"
   x1="184.55"
   y1="71.360001"
   x2="238.84"
   y2="71.360001"
   id="line12"
   style="fill:none;stroke:#1f619c;stroke-width:1.29439998;stroke-linecap:round;stroke-linejoin:round;stroke-miterlimit:10" />
</g>
<g
   id="g109"
   transform="translate(122)">
	<path
   id="Path_353_2_"
   class="st2"
   d="m 176.09,95.27 c -0.74,-1.82 -2.16,-3.28 -3.95,-4.07 -0.89,-0.38 -1.85,-0.58 -2.81,-0.59 -0.99,-0.01 -1.97,0.22 -2.86,0.67 -0.88,0.41 -1.68,0.98 -2.35,1.68 -0.34,0.36 -0.65,0.76 -0.92,1.18 v 0.17 c 0,5.06 4.1,9.16 9.16,9.16 v 0 c 1.51,-0.01 2.99,-0.39 4.33,-1.09 v -4.16 c -0.01,-1.02 -0.21,-2.02 -0.6,-2.95"
   inkscape:connector-curvature="0"
   style="fill:#fdc300" />
	<g
   id="g27">
		<g
   id="g25">
			<defs
   id="defs18">
				<path
   id="SVGID_1_"
   d="m 66.3,109.93 c -1.19,-0.48 -2.26,-1.21 -3.15,-2.14 -0.92,-0.93 -1.65,-2.02 -2.14,-3.23 -0.5,-1.24 -0.76,-2.57 -0.76,-3.91 0,-1.35 0.25,-2.69 0.76,-3.95 0.49,-1.21 1.22,-2.31 2.14,-3.23 2.8,-2.89 7.1,-3.75 10.79,-2.14 1.18,0.51 2.25,1.23 3.15,2.14 2.8,2.97 3.62,7.3 2.1,11.09 -0.49,1.2 -1.21,2.3 -2.1,3.23 -0.9,0.91 -1.97,1.64 -3.15,2.14 -1.2,0.54 -2.51,0.81 -3.82,0.8 -1.31,0.01 -2.62,-0.26 -3.82,-0.8 m -1.34,-21.8 c -1.57,0.69 -3,1.67 -4.2,2.9 -3.84,3.94 -4.97,9.79 -2.86,14.87 0.68,1.6 1.65,3.07 2.86,4.33 1.2,1.23 2.63,2.21 4.2,2.9 3.29,1.4 7,1.4 10.29,0 1.57,-0.69 3,-1.67 4.2,-2.9 1.22,-1.25 2.19,-2.71 2.86,-4.33 1.4,-3.38 1.4,-7.17 0,-10.54 -0.67,-1.61 -1.64,-3.08 -2.86,-4.33 -1.2,-1.23 -2.63,-2.21 -4.2,-2.9 -3.29,-1.4 -7,-1.4 -10.29,0"
   inkscape:connector-curvature="0" />
			</defs>
			<use
   xlink:href="#SVGID_1_"
   style="overflow:visible;fill:#254a91"
   id="use20"
   x="0"
   y="0"
   width="100%"
   height="100%" />
			<clipPath
   id="SVGID_2_">
				<use
   xlink:href="#SVGID_1_"
   style="overflow:visible"
   id="use22"
   x="0"
   y="0"
   width="100%"
   height="100%" />
			</clipPath>
		</g>
	</g>
	<g
   id="g37">
		<defs
   id="defs30">
			<path
   id="SVGID_3_"
   d="m 95.16,110.02 c -3.7,-1.62 -6.08,-5.29 -6.05,-9.32 0,-1.35 0.25,-2.69 0.76,-3.95 1.02,-2.39 2.91,-4.32 5.29,-5.38 1.2,-0.54 2.51,-0.81 3.82,-0.8 1.32,-0.01 2.62,0.26 3.82,0.8 1.18,0.52 2.25,1.26 3.15,2.18 0.9,0.92 1.62,2 2.1,3.19 0.5,1.26 0.76,2.6 0.76,3.95 0.01,1.34 -0.25,2.67 -0.76,3.91 -0.49,1.2 -1.21,2.3 -2.1,3.23 -0.91,0.91 -1.98,1.65 -3.15,2.18 -1.21,0.5 -2.51,0.76 -3.82,0.76 -1.31,0.01 -2.61,-0.25 -3.82,-0.75 M 93.81,88.18 c -1.57,0.69 -3,1.67 -4.2,2.9 -1.21,1.26 -2.17,2.72 -2.86,4.33 -0.68,1.68 -1.02,3.48 -1.01,5.29 v 22.22 h 3.36 v -13.9 c 1.04,1.61 2.51,2.91 4.24,3.74 1.72,0.96 3.66,1.48 5.63,1.51 1.77,0 3.51,-0.37 5.12,-1.09 1.57,-0.69 3,-1.67 4.2,-2.9 1.23,-1.24 2.2,-2.71 2.86,-4.33 1.4,-3.38 1.4,-7.17 0,-10.54 -0.67,-1.61 -1.64,-3.08 -2.86,-4.33 -1.2,-1.23 -2.63,-2.21 -4.2,-2.9 -3.27,-1.4 -6.99,-1.4 -10.28,0"
   inkscape:connector-curvature="0" />
		</defs>
		<use
   xlink:href="#SVGID_3_"
   style="overflow:visible;fill:#254a91"
   id="use32"
   x="0"
   y="0"
   width="100%"
   height="100%" />
		<clipPath
   id="SVGID_4_">
			<use
   xlink:href="#SVGID_3_"
   style="overflow:visible"
   id="use34"
   x="0"
   y="0"
   width="100%"
   height="100%" />
		</clipPath>
	</g>
	<g
   id="g47">
		<defs
   id="defs40">
			<path
   id="SVGID_5_"
   d="m 120.48,93.47 c 3.79,-3.85 9.99,-3.9 13.84,-0.1 0.04,0.03 0.07,0.07 0.1,0.1 0.75,0.8 1.37,1.7 1.85,2.69 h -17.68 c 0.5,-0.99 1.13,-1.9 1.89,-2.69 m 1.85,-5.34 c -1.59,0.69 -3.02,1.67 -4.24,2.9 -1.19,1.26 -2.15,2.72 -2.81,4.33 -1.4,3.38 -1.4,7.17 0,10.54 0.67,1.6 1.62,3.07 2.81,4.33 1.22,1.23 2.66,2.21 4.24,2.9 3.29,1.4 7,1.4 10.29,0 1.57,-0.7 2.99,-1.68 4.2,-2.9 1.21,-1.25 2.16,-2.72 2.81,-4.33 l 0.13,-0.38 h -3.7 c -0.42,0.84 -0.97,1.61 -1.64,2.27 -3.79,3.85 -9.99,3.9 -13.84,0.1 -0.04,-0.03 -0.07,-0.07 -0.1,-0.1 -0.89,-0.94 -1.61,-2.04 -2.1,-3.23 -0.7,-1.55 -0.95,-3.27 -0.71,-4.96 h 22.97 c -0.08,-1.46 -0.42,-2.9 -1.01,-4.24 -0.65,-1.61 -1.61,-3.08 -2.81,-4.33 -1.21,-1.22 -2.63,-2.2 -4.2,-2.9 -3.29,-1.4 -7,-1.4 -10.29,0"
   inkscape:connector-curvature="0" />
		</defs>
		<use
   xlink:href="#SVGID_5_"
   style="overflow:visible;fill:#254a91"
   id="use42"
   x="0"
   y="0"
   width="100%"
   height="100%" />
		<clipPath
   id="SVGID_6_">
			<use
   xlink:href="#SVGID_5_"
   style="overflow:visible"
   id="use44"
   x="0"
   y="0"
   width="100%"
   height="100%" />
		</clipPath>
	</g>
	<g
   id="g57">
		<defs
   id="defs50">
			<path
   id="SVGID_7_"
   d="m 151.23,89.31 c -1.59,0.7 -3.03,1.7 -4.24,2.94 -0.2,0.25 -0.37,0.51 -0.5,0.8 v -4.7 h -3.32 V 113 h 3.32 v -11.17 c 0,-1.35 0.25,-2.69 0.76,-3.95 0.5,-1.19 1.23,-2.28 2.14,-3.19 0.89,-0.94 1.96,-1.68 3.15,-2.18 1.2,-0.54 2.51,-0.81 3.82,-0.8 v -3.44 c -1.78,-0.02 -3.54,0.34 -5.17,1.05"
   inkscape:connector-curvature="0" />
		</defs>
		<use
   xlink:href="#SVGID_7_"
   style="overflow:visible;fill:#254a91"
   id="use52"
   x="0"
   y="0"
   width="100%"
   height="100%" />
		<clipPath
   id="SVGID_8_">
			<use
   xlink:href="#SVGID_7_"
   style="overflow:visible"
   id="use54"
   x="0"
   y="0"
   width="100%"
   height="100%" />
		</clipPath>
	</g>
	<g
   id="g67">
		<defs
   id="defs60">
			<path
   id="SVGID_9_"
   d="m 167.1,87.34 c -0.73,0.15 -1.43,0.39 -2.1,0.71 -0.65,0.29 -1.26,0.67 -1.81,1.13 -0.51,0.4 -0.95,0.88 -1.3,1.43 v -2.27 h -3.36 V 113 h 3.4 V 98.21 c 0,-0.97 0.22,-1.93 0.63,-2.81 0.38,-0.9 0.92,-1.73 1.6,-2.44 0.67,-0.7 1.47,-1.27 2.35,-1.68 0.88,-0.45 1.86,-0.68 2.86,-0.67 0.97,0 1.93,0.2 2.81,0.59 2.76,1.25 4.53,3.99 4.54,7.01 V 113 h 3.49 l -0.08,-14.78 c 0,-1.48 -0.29,-2.95 -0.84,-4.33 -0.57,-1.31 -1.37,-2.5 -2.35,-3.53 -0.98,-1.02 -2.15,-1.83 -3.44,-2.39 -1.31,-0.59 -2.72,-0.89 -4.16,-0.88 -0.76,-0.01 -1.51,0.08 -2.24,0.25"
   inkscape:connector-curvature="0" />
		</defs>
		<use
   xlink:href="#SVGID_9_"
   style="overflow:visible;fill:#254a91"
   id="use62"
   x="0"
   y="0"
   width="100%"
   height="100%" />
		<clipPath
   id="SVGID_10_">
			<use
   xlink:href="#SVGID_9_"
   style="overflow:visible"
   id="use64"
   x="0"
   y="0"
   width="100%"
   height="100%" />
		</clipPath>
	</g>
	<g
   id="g77">
		<defs
   id="defs70">
			<path
   id="SVGID_11_"
   d="m 183.61,113 h 3.36 V 88.34 h -3.36 z m 0.29,-33.9 c -0.81,0.8 -0.83,2.1 -0.03,2.91 0.39,0.4 0.94,0.63 1.5,0.62 0.54,0 1.05,-0.21 1.43,-0.59 0.78,-0.83 0.78,-2.11 0,-2.94 -0.37,-0.4 -0.89,-0.61 -1.43,-0.59 -0.55,-0.02 -1.09,0.19 -1.47,0.59"
   inkscape:connector-curvature="0" />
		</defs>
		<use
   xlink:href="#SVGID_11_"
   style="overflow:visible;fill:#254a91"
   id="use72"
   x="0"
   y="0"
   width="100%"
   height="100%" />
		<clipPath
   id="SVGID_12_">
			<use
   xlink:href="#SVGID_11_"
   style="overflow:visible"
   id="use74"
   x="0"
   y="0"
   width="100%"
   height="100%" />
		</clipPath>
	</g>
	<g
   id="g87">
		<defs
   id="defs80">
			<path
   id="SVGID_13_"
   d="m 197.72,88.13 c -1.57,0.7 -2.99,1.68 -4.2,2.9 -3.84,3.94 -4.97,9.79 -2.86,14.87 0.68,1.6 1.65,3.07 2.86,4.33 1.21,1.22 2.63,2.2 4.2,2.9 6.63,2.84 14.32,-0.23 17.16,-6.87 0.05,-0.12 0.1,-0.24 0.15,-0.36 l 0.17,-0.38 h -3.7 c -0.45,0.82 -1,1.58 -1.64,2.27 -0.9,0.91 -1.97,1.64 -3.15,2.14 -1.2,0.54 -2.51,0.81 -3.82,0.8 -4,-0.03 -7.6,-2.47 -9.11,-6.17 -0.5,-1.24 -0.76,-2.57 -0.76,-3.91 0,-1.35 0.25,-2.69 0.76,-3.95 0.49,-1.21 1.22,-2.31 2.14,-3.23 2.8,-2.89 7.1,-3.75 10.79,-2.14 1.18,0.51 2.25,1.23 3.15,2.14 0.63,0.67 1.17,1.42 1.6,2.23 h 3.74 l -0.17,-0.34 c -2.64,-6.72 -10.23,-10.02 -16.95,-7.37 -0.12,0.04 -0.24,0.09 -0.36,0.14"
   inkscape:connector-curvature="0" />
		</defs>
		<use
   xlink:href="#SVGID_13_"
   style="overflow:visible;fill:#254a91"
   id="use82"
   x="0"
   y="0"
   width="100%"
   height="100%" />
		<clipPath
   id="SVGID_14_">
			<use
   xlink:href="#SVGID_13_"
   style="overflow:visible"
   id="use84"
   x="0"
   y="0"
   width="100%"
   height="100%" />
		</clipPath>
	</g>
	<g
   id="g97">
		<defs
   id="defs90">
			<path
   id="SVGID_15_"
   d="m 235.48,88.34 v 13.57 c 0,1.01 -0.2,2.01 -0.59,2.94 -0.37,0.9 -0.91,1.71 -1.6,2.39 -0.68,0.68 -1.48,1.23 -2.35,1.64 -1.84,0.78 -3.92,0.78 -5.75,0 -0.86,-0.41 -1.64,-0.96 -2.31,-1.64 -0.7,-0.67 -1.24,-1.49 -1.6,-2.39 -0.39,-0.93 -0.59,-1.93 -0.59,-2.94 v 0 -13.57 h -3.49 v 13.52 0 c -0.01,1.47 0.29,2.93 0.88,4.28 0.55,1.31 1.35,2.51 2.35,3.53 0.98,1.02 2.15,1.83 3.44,2.39 1.31,0.59 2.72,0.89 4.16,0.88 1.45,0.01 2.88,-0.29 4.2,-0.88 1.28,-0.58 2.45,-1.39 3.44,-2.39 0.97,-1.03 1.76,-2.22 2.31,-3.53 0.56,-1.36 0.84,-2.81 0.84,-4.28 V 88.34 Z"
   inkscape:connector-curvature="0" />
		</defs>
		<use
   xlink:href="#SVGID_15_"
   style="overflow:visible;fill:#254a91"
   id="use92"
   x="0"
   y="0"
   width="100%"
   height="100%" />
		<clipPath
   id="SVGID_16_">
			<use
   xlink:href="#SVGID_15_"
   style="overflow:visible"
   id="use94"
   x="0"
   y="0"
   width="100%"
   height="100%" />
		</clipPath>
	</g>
	<g
   id="g107">
		<defs
   id="defs100">
			<path
   id="SVGID_17_"
   d="m 246.86,87.76 c -1.02,0.39 -1.94,0.97 -2.73,1.72 -0.75,0.68 -1.35,1.51 -1.76,2.44 -0.42,0.93 -0.56,1.97 -0.42,2.98 0.1,1.26 0.58,2.46 1.39,3.44 0.73,0.89 1.67,1.6 2.73,2.06 1.12,0.5 2.29,0.89 3.49,1.18 1.06,0.29 2.1,0.65 3.11,1.09 0.75,0.33 1.4,0.85 1.89,1.51 0.46,0.63 0.63,1.51 0.63,2.6 -0.07,1.07 -0.53,2.07 -1.3,2.81 -0.78,0.76 -1.96,1.13 -3.53,1.13 -1.21,0.08 -2.41,-0.21 -3.44,-0.84 -0.78,-0.48 -1.41,-1.18 -1.81,-2.02 -0.34,-0.74 -0.51,-1.54 -0.5,-2.35 h -3.4 c -0.04,1.26 0.2,2.51 0.71,3.65 0.49,1.02 1.17,1.93 2.02,2.69 0.84,0.74 1.81,1.33 2.86,1.72 1.07,0.38 2.19,0.58 3.32,0.59 1.11,0 2.21,-0.16 3.28,-0.46 0.98,-0.32 1.91,-0.8 2.73,-1.43 0.8,-0.63 1.44,-1.44 1.89,-2.35 0.47,-0.97 0.7,-2.03 0.67,-3.11 0.04,-1.32 -0.25,-2.64 -0.84,-3.82 -0.6,-1.04 -1.43,-1.92 -2.44,-2.56 -1.06,-0.66 -2.18,-1.19 -3.36,-1.6 l -3.23,-1.13 c -0.84,-0.28 -1.63,-0.68 -2.35,-1.18 -0.59,-0.44 -1,-1.08 -1.13,-1.81 -0.15,-0.9 0.09,-1.82 0.67,-2.52 0.54,-0.7 1.25,-1.25 2.06,-1.6 0.66,-0.24 1.36,-0.36 2.06,-0.38 0.94,-0.01 1.85,0.25 2.65,0.76 0.79,0.51 1.37,1.28 1.64,2.18 h 3.61 c -0.09,-0.62 -0.3,-1.22 -0.63,-1.76 -0.42,-0.74 -0.93,-1.43 -1.51,-2.06 -0.68,-0.7 -1.5,-1.25 -2.39,-1.64 -1.06,-0.44 -2.21,-0.66 -3.36,-0.63 -1.16,0.02 -2.26,0.25 -3.28,0.7"
   inkscape:connector-curvature="0" />
		</defs>
		<use
   xlink:href="#SVGID_17_"
   style="overflow:visible;fill:#254a91"
   id="use102"
   x="0"
   y="0"
   width="100%"
   height="100%" />
		<clipPath
   id="SVGID_18_">
			<use
   xlink:href="#SVGID_17_"
   style="overflow:visible"
   id="use104"
   x="0"
   y="0"
   width="100%"
   height="100%" />
		</clipPath>
	</g>
</g>
<path
   id="use3945_2_"
   class="st3"
   d="m 142.57,87.26 c 0,22.68 18.11,41.03 40.54,41.03 6.2,0 12.35,-1.44 17.94,-4.27 0,0 0.11,-0.06 0.06,-0.17 0,-0.06 -0.06,-0.06 -0.11,-0.06 -4.26,1.72 -8.8,2.61 -13.4,2.55 -20.38,0 -36.88,-16.74 -36.88,-37.42 0,-20.68 16.54,-37.42 36.87,-37.42 14.07,0 26.86,8.04 33.06,20.68 0,0 0.06,0.11 0.17,0.06 0.06,0 0.06,-0.06 0.06,-0.11 -6.05,-15.53 -21.06,-25.79 -37.72,-25.79 -22.49,-0.05 -40.59,18.3 -40.59,40.92"
   inkscape:connector-curvature="0"
   style="fill:#6aabde" />
<g
   id="g216"
   transform="translate(122)">
	<path
   class="st4"
   d="m 85.05,132.19 h 3.88 v 0.98 H 86.1 v 2.27 h 2.71 v 0.98 H 86.1 v 3.54 h -1.05 z"
   id="path112"
   inkscape:connector-curvature="0"
   style="fill:#1f619c" />
	<path
   class="st4"
   d="m 90.33,134.28 h 0.92 v 0.88 h 0.02 c 0.26,-0.59 0.83,-1.01 1.39,-1.01 0.29,0 0.44,0.03 0.65,0.08 v 0.93 c -0.18,-0.08 -0.38,-0.1 -0.54,-0.1 -0.88,0 -1.45,0.89 -1.45,2.31 v 2.58 h -0.98 v -5.67 z"
   id="path114"
   inkscape:connector-curvature="0"
   style="fill:#1f619c" />
	<path
   class="st4"
   d="m 94.73,134.68 c 0.49,-0.31 1.08,-0.53 1.76,-0.53 1.53,0 2.14,0.8 2.14,2.35 v 2.35 c 0,0.64 0.02,0.95 0.04,1.11 h -0.92 v -0.73 h -0.02 c -0.23,0.34 -0.75,0.87 -1.65,0.87 -1.15,0 -1.96,-0.53 -1.96,-1.77 0,-1.42 1.46,-1.87 2.48,-1.87 0.39,0 0.66,0 1.04,0.02 0,-0.98 -0.33,-1.48 -1.32,-1.48 -0.55,0 -1.15,0.22 -1.55,0.58 z m 2.92,2.57 c -0.21,0 -0.42,-0.02 -0.63,-0.02 -0.53,0 -1.85,0.09 -1.85,1.09 0,0.6 0.54,0.92 0.99,0.92 0.97,0 1.48,-0.65 1.48,-1.49 v -0.5 z"
   id="path116"
   inkscape:connector-curvature="0"
   style="fill:#1f619c" />
	<path
   class="st4"
   d="m 100.36,134.28 h 0.92 v 0.82 h 0.02 c 0.38,-0.66 0.91,-0.96 1.69,-0.96 0.62,0 1.23,0.33 1.52,1.1 0.37,-0.81 1.17,-1.1 1.65,-1.1 1.36,0 1.85,0.93 1.85,2.17 v 3.64 h -0.98 v -3.38 c 0,-0.7 -0.16,-1.58 -0.95,-1.58 -1,0 -1.4,1.04 -1.4,2.1 v 2.86 h -0.98 v -3.38 c 0,-0.7 -0.16,-1.58 -0.95,-1.58 -1,0 -1.4,1.04 -1.4,2.1 v 2.86 h -0.98 v -5.67 z"
   id="path118"
   inkscape:connector-curvature="0"
   style="fill:#1f619c" />
	<path
   class="st4"
   d="m 113.83,139.72 c -0.38,0.14 -0.8,0.37 -1.68,0.37 -1.89,0 -2.76,-1.22 -2.76,-3.07 0,-1.68 0.99,-2.87 2.5,-2.87 1.78,0 2.35,1.38 2.35,3.2 h -3.8 c 0,1.12 0.83,1.89 1.76,1.89 0.65,0 1.4,-0.36 1.64,-0.57 v 1.05 z m -0.63,-3.15 c 0,-0.87 -0.48,-1.58 -1.33,-1.58 -0.96,0 -1.36,0.84 -1.43,1.58 z"
   id="path120"
   inkscape:connector-curvature="0"
   style="fill:#1f619c" />
	<path
   class="st4"
   d="m 121.67,139.95 h -1.14 l -1.38,-4.76 h -0.02 l -1.35,4.76 h -1.14 l -1.71,-5.67 h 1.08 l 1.22,4.69 h 0.02 l 1.36,-4.69 h 1.16 l 1.34,4.69 h 0.02 l 1.3,-4.69 h 0.96 z"
   id="path122"
   inkscape:connector-curvature="0"
   style="fill:#1f619c" />
	<path
   class="st4"
   d="m 126.79,134.15 c 1.62,0 2.71,1.25 2.71,2.97 0,1.62 -1.11,2.97 -2.71,2.97 -1.61,0 -2.72,-1.35 -2.72,-2.97 0,-1.73 1.09,-2.97 2.72,-2.97 z m 0,5.09 c 1.15,0 1.66,-1.11 1.66,-2.12 0,-1.08 -0.62,-2.12 -1.66,-2.12 -1.06,0 -1.67,1.04 -1.67,2.12 0,1.01 0.51,2.12 1.67,2.12 z"
   id="path124"
   inkscape:connector-curvature="0"
   style="fill:#1f619c" />
	<path
   class="st4"
   d="m 130.9,134.28 h 0.92 v 0.88 h 0.02 c 0.26,-0.59 0.83,-1.01 1.39,-1.01 0.29,0 0.44,0.03 0.65,0.08 v 0.93 c -0.18,-0.08 -0.38,-0.1 -0.54,-0.1 -0.88,0 -1.45,0.89 -1.45,2.31 v 2.58 h -0.98 v -5.67 z"
   id="path126"
   inkscape:connector-curvature="0"
   style="fill:#1f619c" />
	<path
   class="st4"
   d="m 135.05,131.61 h 0.98 v 4.97 l 2.14,-2.3 h 1.34 l -2.48,2.51 2.79,3.16 h -1.41 l -2.38,-2.92 v 2.92 h -0.98 z"
   id="path128"
   inkscape:connector-curvature="0"
   style="fill:#1f619c" />
	<path
   class="st4"
   d="m 143.96,132.19 h 1.91 c 1.49,0 2.74,0.56 2.74,2.33 0,1.72 -1.27,2.34 -2.58,2.34 h -1.02 v 3.1 h -1.05 z m 1.05,3.68 h 1.03 c 0.65,0 1.46,-0.34 1.46,-1.37 0,-0.98 -0.96,-1.33 -1.61,-1.33 H 145 v 2.7 z"
   id="path130"
   inkscape:connector-curvature="0"
   style="fill:#1f619c" />
	<path
   class="st4"
   d="m 150.08,134.68 c 0.49,-0.31 1.08,-0.53 1.76,-0.53 1.53,0 2.14,0.8 2.14,2.35 v 2.35 c 0,0.64 0.02,0.95 0.04,1.11 h -0.92 v -0.73 h -0.02 c -0.23,0.34 -0.75,0.87 -1.65,0.87 -1.15,0 -1.96,-0.53 -1.96,-1.77 0,-1.42 1.46,-1.87 2.48,-1.87 0.39,0 0.66,0 1.04,0.02 0,-0.98 -0.33,-1.48 -1.32,-1.48 -0.55,0 -1.15,0.22 -1.55,0.58 z m 2.91,2.57 c -0.21,0 -0.42,-0.02 -0.63,-0.02 -0.53,0 -1.85,0.09 -1.85,1.09 0,0.6 0.54,0.92 0.99,0.92 0.97,0 1.48,-0.65 1.48,-1.49 v -0.5 z"
   id="path132"
   inkscape:connector-curvature="0"
   style="fill:#1f619c" />
	<path
   class="st4"
   d="m 155.72,134.28 h 0.92 v 0.88 h 0.02 c 0.26,-0.59 0.82,-1.01 1.39,-1.01 0.29,0 0.44,0.03 0.65,0.08 v 0.93 c -0.18,-0.08 -0.38,-0.1 -0.54,-0.1 -0.88,0 -1.45,0.89 -1.45,2.31 v 2.58 h -0.98 v -5.67 z"
   id="path134"
   inkscape:connector-curvature="0"
   style="fill:#1f619c" />
	<path
   class="st4"
   d="m 162.7,135.12 h -1.41 v 3.1 c 0,0.66 0.38,1.01 0.82,1.01 0.3,0 0.52,-0.1 0.67,-0.2 v 0.89 c -0.22,0.07 -0.52,0.16 -0.84,0.16 -1.01,0 -1.64,-0.51 -1.64,-1.65 v -3.32 h -1.2 v -0.84 h 1.2 v -1.31 l 0.98,-0.33 v 1.65 h 1.41 v 0.84 z"
   id="path136"
   inkscape:connector-curvature="0"
   style="fill:#1f619c" />
	<path
   class="st4"
   d="m 164.01,134.28 h 0.95 v 0.9 h 0.02 c 0.29,-0.64 1,-1.03 1.75,-1.03 1.38,0 2,0.91 2,2.44 v 3.37 h -0.98 v -2.94 c 0,-1.32 -0.27,-1.97 -1.13,-2.02 -1.12,0 -1.62,0.96 -1.62,2.34 v 2.62 h -0.98 v -5.68 z"
   id="path138"
   inkscape:connector-curvature="0"
   style="fill:#1f619c" />
	<path
   class="st4"
   d="m 174.57,139.72 c -0.38,0.14 -0.8,0.37 -1.68,0.37 -1.89,0 -2.76,-1.22 -2.76,-3.07 0,-1.68 0.99,-2.87 2.5,-2.87 1.78,0 2.35,1.38 2.35,3.2 h -3.8 c 0,1.12 0.82,1.89 1.76,1.89 0.65,0 1.4,-0.36 1.64,-0.57 v 1.05 z m -0.64,-3.15 c 0,-0.87 -0.48,-1.58 -1.33,-1.58 -0.96,0 -1.36,0.84 -1.43,1.58 z"
   id="path140"
   inkscape:connector-curvature="0"
   style="fill:#1f619c" />
	<path
   class="st4"
   d="m 176.38,134.28 h 0.92 v 0.88 h 0.02 c 0.26,-0.59 0.83,-1.01 1.39,-1.01 0.29,0 0.44,0.03 0.65,0.08 v 0.93 c -0.18,-0.08 -0.38,-0.1 -0.54,-0.1 -0.88,0 -1.45,0.89 -1.45,2.31 v 2.58 h -0.98 v -5.67 z"
   id="path142"
   inkscape:connector-curvature="0"
   style="fill:#1f619c" />
	<path
   class="st4"
   d="m 180.13,138.84 c 0.39,0.27 0.94,0.4 1.22,0.4 0.45,0 1,-0.2 1,-0.81 0,-1.03 -2.31,-0.95 -2.31,-2.54 0,-1.18 0.82,-1.75 1.88,-1.75 0.46,0 0.84,0.1 1.22,0.22 l -0.08,0.91 c -0.22,-0.14 -0.8,-0.29 -1.04,-0.29 -0.5,0 -0.94,0.22 -0.94,0.69 0,1.16 2.31,0.82 2.31,2.64 0,1.21 -0.91,1.77 -1.86,1.77 -0.5,0 -1.01,-0.06 -1.46,-0.31 z"
   id="path144"
   inkscape:connector-curvature="0"
   style="fill:#1f619c" />
	<path
   class="st4"
   d="m 184.67,131.61 h 0.98 v 3.48 h 0.02 c 0.36,-0.6 0.97,-0.95 1.71,-0.95 1.38,0 2,0.91 2,2.44 v 3.37 h -0.98 v -2.94 c 0,-1.32 -0.27,-1.97 -1.13,-2.02 -1.12,0 -1.62,0.96 -1.62,2.34 v 2.62 h -0.98 z"
   id="path146"
   inkscape:connector-curvature="0"
   style="fill:#1f619c" />
	<path
   class="st4"
   d="m 192.31,133.01 h -1.11 v -1.18 h 1.11 z m -1.04,1.27 h 0.98 v 5.67 h -0.98 z"
   id="path148"
   inkscape:connector-curvature="0"
   style="fill:#1f619c" />
	<path
   class="st4"
   d="m 194.13,134.28 h 0.94 v 0.8 h 0.02 c 0.26,-0.42 0.87,-0.93 1.81,-0.93 1.55,0 2.3,1.35 2.3,2.87 0,1.56 -0.68,3.07 -2.29,3.07 -0.94,0 -1.47,-0.39 -1.78,-0.91 h -0.02 v 3.12 h -0.98 z m 2.56,0.71 c -1.07,0 -1.58,1.08 -1.58,2.14 0,0.95 0.46,2.11 1.57,2.11 1.05,0 1.49,-1.26 1.47,-2.15 0.02,-1.02 -0.39,-2.1 -1.46,-2.1 z"
   id="path150"
   inkscape:connector-curvature="0"
   style="fill:#1f619c" />
	<path
   class="st4"
   d="m 205.99,132.19 h 1.1 l 3.08,7.76 h -1.14 l -0.74,-1.96 h -3.57 l -0.74,1.96 h -1.1 z m 0.51,1.04 -1.45,3.85 h 2.91 z"
   id="path152"
   inkscape:connector-curvature="0"
   style="fill:#1f619c" />
	<path
   class="st4"
   d="m 215.93,139.71 c 0,1.72 -0.84,2.71 -2.75,2.71 -0.56,0 -1.06,-0.08 -1.91,-0.39 l 0.1,-0.97 c 0.75,0.37 1.2,0.51 1.92,0.51 1.04,0 1.65,-0.75 1.65,-1.95 v -0.56 h -0.02 c -0.42,0.59 -1.11,0.88 -1.79,0.88 -1.53,0 -2.28,-1.32 -2.28,-2.79 0,-1.46 0.77,-3.01 2.38,-3.01 0.94,0 1.46,0.37 1.76,0.98 h 0.02 v -0.84 h 0.91 v 5.43 z m -0.98,-2.53 c 0,-1.18 -0.51,-2.19 -1.56,-2.19 -0.99,0 -1.48,1.15 -1.48,2.11 0,1.07 0.56,2 1.48,2 0.92,0 1.56,-0.86 1.56,-1.92 z"
   id="path154"
   inkscape:connector-curvature="0"
   style="fill:#1f619c" />
	<path
   class="st4"
   d="m 217.68,134.28 h 0.92 v 0.88 h 0.02 c 0.26,-0.59 0.82,-1.01 1.39,-1.01 0.29,0 0.44,0.03 0.65,0.08 v 0.93 c -0.18,-0.08 -0.38,-0.1 -0.54,-0.1 -0.88,0 -1.45,0.89 -1.45,2.31 v 2.58 h -0.98 v -5.67 z"
   id="path156"
   inkscape:connector-curvature="0"
   style="fill:#1f619c" />
	<path
   class="st4"
   d="m 225.92,139.72 c -0.38,0.14 -0.8,0.37 -1.68,0.37 -1.89,0 -2.76,-1.22 -2.76,-3.07 0,-1.68 0.99,-2.87 2.5,-2.87 1.78,0 2.35,1.38 2.35,3.2 h -3.8 c 0,1.12 0.82,1.89 1.76,1.89 0.65,0 1.4,-0.36 1.64,-0.57 v 1.05 z m -0.64,-3.15 c 0,-0.87 -0.48,-1.58 -1.33,-1.58 -0.96,0 -1.36,0.84 -1.43,1.58 z"
   id="path158"
   inkscape:connector-curvature="0"
   style="fill:#1f619c" />
	<path
   class="st4"
   d="m 231.81,139.72 c -0.38,0.14 -0.8,0.37 -1.68,0.37 -1.89,0 -2.76,-1.22 -2.76,-3.07 0,-1.68 0.99,-2.87 2.5,-2.87 1.78,0 2.35,1.38 2.35,3.2 h -3.8 c 0,1.12 0.82,1.89 1.76,1.89 0.65,0 1.4,-0.36 1.64,-0.57 v 1.05 z m -0.64,-3.15 c 0,-0.87 -0.48,-1.58 -1.33,-1.58 -0.96,0 -1.36,0.84 -1.43,1.58 z"
   id="path160"
   inkscape:connector-curvature="0"
   style="fill:#1f619c" />
	<path
   class="st4"
   d="m 233.61,134.28 h 0.92 v 0.82 h 0.02 c 0.38,-0.66 0.91,-0.96 1.69,-0.96 0.62,0 1.23,0.33 1.52,1.1 0.37,-0.81 1.17,-1.1 1.65,-1.1 1.36,0 1.85,0.93 1.85,2.17 v 3.64 h -0.98 v -3.38 c 0,-0.7 -0.16,-1.58 -0.95,-1.58 -1,0 -1.4,1.04 -1.4,2.1 v 2.86 h -0.98 v -3.38 c 0,-0.7 -0.16,-1.58 -0.95,-1.58 -1,0 -1.4,1.04 -1.4,2.1 v 2.86 h -0.98 v -5.67 z"
   id="path162"
   inkscape:connector-curvature="0"
   style="fill:#1f619c" />
	<path
   class="st4"
   d="m 247.08,139.72 c -0.38,0.14 -0.8,0.37 -1.68,0.37 -1.89,0 -2.76,-1.22 -2.76,-3.07 0,-1.68 0.99,-2.87 2.5,-2.87 1.78,0 2.35,1.38 2.35,3.2 h -3.8 c 0,1.12 0.82,1.89 1.76,1.89 0.65,0 1.4,-0.36 1.64,-0.57 v 1.05 z m -0.64,-3.15 c 0,-0.87 -0.48,-1.58 -1.33,-1.58 -0.96,0 -1.36,0.84 -1.43,1.58 z"
   id="path164"
   inkscape:connector-curvature="0"
   style="fill:#1f619c" />
	<path
   class="st4"
   d="m 248.89,134.28 h 0.95 v 0.9 h 0.02 c 0.29,-0.64 1,-1.03 1.75,-1.03 1.38,0 2,0.91 2,2.44 v 3.37 h -0.98 v -2.94 c 0,-1.32 -0.27,-1.97 -1.13,-2.02 -1.12,0 -1.62,0.96 -1.62,2.34 v 2.62 h -0.98 v -5.68 z"
   id="path166"
   inkscape:connector-curvature="0"
   style="fill:#1f619c" />
	<path
   class="st4"
   d="m 258.19,135.12 h -1.41 v 3.1 c 0,0.66 0.38,1.01 0.82,1.01 0.3,0 0.52,-0.1 0.67,-0.2 v 0.89 c -0.22,0.07 -0.52,0.16 -0.84,0.16 -1.01,0 -1.64,-0.51 -1.64,-1.65 v -3.32 h -1.2 v -0.84 h 1.2 v -1.31 l 0.98,-0.33 v 1.65 h 1.41 v 0.84 z"
   id="path168"
   inkscape:connector-curvature="0"
   style="fill:#1f619c" />
	<path
   class="st4"
   d="m 85.66,148.46 h -1.25 v -0.85 h 1.25 v -0.52 c 0,-1.38 0.33,-2.28 1.79,-2.28 0.25,0 0.46,0.03 0.66,0.07 l -0.04,0.85 c -0.12,-0.04 -0.3,-0.07 -0.47,-0.07 -0.85,0 -0.95,0.58 -0.95,1.35 v 0.61 h 1.41 v 0.85 h -1.41 v 4.83 h -0.98 v -4.84 z"
   id="path170"
   inkscape:connector-curvature="0"
   style="fill:#1f619c" />
	<path
   class="st4"
   d="m 91.53,147.48 c 1.62,0 2.71,1.25 2.71,2.97 0,1.62 -1.11,2.97 -2.71,2.97 -1.61,0 -2.72,-1.35 -2.72,-2.97 0.01,-1.72 1.09,-2.97 2.72,-2.97 z m 0,5.1 c 1.15,0 1.66,-1.11 1.66,-2.12 0,-1.08 -0.62,-2.12 -1.66,-2.12 -1.06,0 -1.67,1.05 -1.67,2.12 0,1.01 0.51,2.12 1.67,2.12 z"
   id="path172"
   inkscape:connector-curvature="0"
   style="fill:#1f619c" />
	<path
   class="st4"
   d="m 95.64,147.62 h 0.92 v 0.88 h 0.02 c 0.26,-0.59 0.83,-1.01 1.39,-1.01 0.29,0 0.44,0.03 0.65,0.08 v 0.93 c -0.18,-0.08 -0.38,-0.1 -0.54,-0.1 -0.88,0 -1.45,0.89 -1.45,2.31 v 2.58 h -0.98 v -5.67 z"
   id="path174"
   inkscape:connector-curvature="0"
   style="fill:#1f619c" />
	<path
   class="st4"
   d="m 107.91,146.81 c -0.46,-0.29 -0.97,-0.43 -1.5,-0.43 -1.68,0 -2.8,1.29 -2.8,3.04 0,1.82 1.23,3.04 2.75,3.04 0.52,0 1.22,-0.15 1.59,-0.38 l 0.06,1.08 c -0.55,0.25 -1.23,0.28 -1.66,0.28 -2.31,0 -3.85,-1.58 -3.85,-4.05 0,-2.39 1.63,-3.98 3.86,-3.98 0.56,0 1.12,0.09 1.64,0.33 z"
   id="path176"
   inkscape:connector-curvature="0"
   style="fill:#1f619c" />
	<path
   class="st4"
   d="m 111.61,147.48 c 1.62,0 2.71,1.25 2.71,2.97 0,1.62 -1.11,2.97 -2.71,2.97 -1.61,0 -2.72,-1.35 -2.72,-2.97 0,-1.72 1.09,-2.97 2.72,-2.97 z m 0,5.1 c 1.15,0 1.66,-1.11 1.66,-2.12 0,-1.08 -0.62,-2.12 -1.66,-2.12 -1.06,0 -1.67,1.05 -1.67,2.12 -0.01,1.01 0.51,2.12 1.67,2.12 z"
   id="path178"
   inkscape:connector-curvature="0"
   style="fill:#1f619c" />
	<path
   class="st4"
   d="m 115.71,147.62 h 0.94 v 0.8 h 0.02 c 0.26,-0.42 0.87,-0.93 1.81,-0.93 1.55,0 2.3,1.35 2.3,2.87 0,1.56 -0.68,3.07 -2.29,3.07 -0.94,0 -1.47,-0.39 -1.78,-0.91 h -0.02 v 3.11 h -0.98 z m 2.56,0.71 c -1.07,0 -1.58,1.08 -1.58,2.14 0,0.95 0.46,2.11 1.57,2.11 1.06,0 1.49,-1.26 1.47,-2.15 0.03,-1.02 -0.39,-2.1 -1.46,-2.1 z"
   id="path180"
   inkscape:connector-curvature="0"
   style="fill:#1f619c" />
	<path
   class="st4"
   d="m 126.27,153.06 c -0.38,0.14 -0.8,0.37 -1.68,0.37 -1.89,0 -2.76,-1.22 -2.76,-3.07 0,-1.68 0.99,-2.87 2.5,-2.87 1.78,0 2.35,1.38 2.35,3.2 h -3.8 c 0,1.12 0.83,1.89 1.76,1.89 0.65,0 1.4,-0.36 1.64,-0.57 v 1.05 z m -0.64,-3.15 c 0,-0.87 -0.48,-1.58 -1.33,-1.58 -0.96,0 -1.36,0.85 -1.43,1.58 z"
   id="path182"
   inkscape:connector-curvature="0"
   style="fill:#1f619c" />
	<path
   class="st4"
   d="M 128.08,147.62 H 129 v 0.88 h 0.02 c 0.26,-0.59 0.83,-1.01 1.39,-1.01 0.29,0 0.44,0.03 0.65,0.08 v 0.93 c -0.18,-0.08 -0.38,-0.1 -0.54,-0.1 -0.88,0 -1.45,0.89 -1.45,2.31 v 2.58 h -0.98 v -5.67 z"
   id="path184"
   inkscape:connector-curvature="0"
   style="fill:#1f619c" />
	<path
   class="st4"
   d="m 132.22,147.62 h 0.95 v 0.9 h 0.02 c 0.29,-0.65 1,-1.04 1.75,-1.04 1.38,0 2,0.91 2,2.44 v 3.37 h -0.98 v -2.94 c 0,-1.32 -0.27,-1.97 -1.13,-2.02 -1.12,0 -1.62,0.96 -1.62,2.34 v 2.62 h -0.98 v -5.67 z"
   id="path186"
   inkscape:connector-curvature="0"
   style="fill:#1f619c" />
	<path
   class="st4"
   d="m 139.86,146.35 h -1.11 v -1.18 h 1.11 z m -1.04,1.27 h 0.98 v 5.67 h -0.98 z"
   id="path188"
   inkscape:connector-curvature="0"
   style="fill:#1f619c" />
	<path
   class="st4"
   d="m 145.07,148.58 c -0.38,-0.17 -0.75,-0.25 -1.07,-0.25 -1.1,0 -1.71,1.05 -1.71,2.12 0,1.01 0.51,2.12 1.78,2.12 0.33,0 0.75,-0.11 1.05,-0.32 l 0.07,0.93 c -0.41,0.2 -0.88,0.23 -1.23,0.23 -1.61,0 -2.72,-1.35 -2.72,-2.97 0,-1.72 1.09,-2.97 2.72,-2.97 0.4,0 0.91,0.1 1.19,0.22 z"
   id="path190"
   inkscape:connector-curvature="0"
   style="fill:#1f619c" />
	<path
   class="st4"
   d="m 151.12,153.29 h -0.95 v -0.9 h -0.02 c -0.29,0.64 -1,1.03 -1.74,1.03 -1.38,0 -2,-0.91 -2,-2.44 v -3.37 h 0.98 v 2.94 c 0,1.32 0.27,1.97 1.13,2.02 1.12,0 1.62,-0.96 1.62,-2.34 v -2.62 h 0.98 z"
   id="path192"
   inkscape:connector-curvature="0"
   style="fill:#1f619c" />
	<path
   class="st4"
   d="m 152.48,152.18 c 0.39,0.27 0.94,0.4 1.22,0.4 0.45,0 1,-0.2 1,-0.81 0,-1.04 -2.31,-0.95 -2.31,-2.54 0,-1.18 0.83,-1.75 1.88,-1.75 0.46,0 0.84,0.1 1.22,0.22 l -0.08,0.91 c -0.22,-0.14 -0.8,-0.29 -1.04,-0.29 -0.5,0 -0.94,0.22 -0.94,0.69 0,1.16 2.31,0.82 2.31,2.64 0,1.21 -0.91,1.77 -1.86,1.77 -0.5,0 -1.01,-0.06 -1.46,-0.31 z"
   id="path194"
   inkscape:connector-curvature="0"
   style="fill:#1f619c" />
	<path
   class="st4"
   d="m 165.78,150.08 c 0,2.18 -1.03,3.35 -2.83,3.35 -1.8,0 -2.83,-1.17 -2.83,-3.35 v -4.55 h 1.04 v 4.4 c 0,1.49 0.44,2.51 1.79,2.51 1.35,0 1.79,-1.02 1.79,-2.51 v -4.4 h 1.04 z"
   id="path196"
   inkscape:connector-curvature="0"
   style="fill:#1f619c" />
	<path
   class="st4"
   d="m 167.24,152.18 c 0.39,0.27 0.94,0.4 1.22,0.4 0.45,0 1,-0.2 1,-0.81 0,-1.04 -2.31,-0.95 -2.31,-2.54 0,-1.18 0.83,-1.75 1.88,-1.75 0.46,0 0.84,0.1 1.22,0.22 l -0.08,0.91 c -0.22,-0.14 -0.8,-0.29 -1.04,-0.29 -0.5,0 -0.94,0.22 -0.94,0.69 0,1.16 2.31,0.82 2.31,2.64 0,1.21 -0.91,1.77 -1.86,1.77 -0.5,0 -1.01,-0.06 -1.46,-0.31 z"
   id="path198"
   inkscape:connector-curvature="0"
   style="fill:#1f619c" />
	<path
   class="st4"
   d="m 175.87,153.06 c -0.38,0.14 -0.8,0.37 -1.68,0.37 -1.89,0 -2.76,-1.22 -2.76,-3.07 0,-1.68 0.99,-2.87 2.5,-2.87 1.78,0 2.35,1.38 2.35,3.2 h -3.8 c 0,1.12 0.83,1.89 1.76,1.89 0.65,0 1.4,-0.36 1.64,-0.57 v 1.05 z m -0.63,-3.15 c 0,-0.87 -0.48,-1.58 -1.33,-1.58 -0.96,0 -1.36,0.85 -1.43,1.58 z"
   id="path200"
   inkscape:connector-curvature="0"
   style="fill:#1f619c" />
	<path
   class="st4"
   d="m 177.68,147.62 h 0.92 v 0.88 h 0.02 c 0.26,-0.59 0.82,-1.01 1.39,-1.01 0.29,0 0.44,0.03 0.65,0.08 v 0.93 c -0.18,-0.08 -0.38,-0.1 -0.54,-0.1 -0.88,0 -1.45,0.89 -1.45,2.31 v 2.58 h -0.98 v -5.67 z"
   id="path202"
   inkscape:connector-curvature="0"
   style="fill:#1f619c" />
	<path
   class="st4"
   d="m 190.59,150.08 c 0,2.18 -1.04,3.35 -2.83,3.35 -1.8,0 -2.83,-1.17 -2.83,-3.35 v -4.55 h 1.05 v 4.4 c 0,1.49 0.44,2.51 1.79,2.51 1.35,0 1.79,-1.02 1.79,-2.51 v -4.4 h 1.04 v 4.55 z"
   id="path204"
   inkscape:connector-curvature="0"
   style="fill:#1f619c" />
	<path
   class="st4"
   d="m 192.45,147.62 h 0.94 v 0.8 h 0.02 c 0.26,-0.42 0.87,-0.93 1.81,-0.93 1.55,0 2.3,1.35 2.3,2.87 0,1.56 -0.68,3.07 -2.29,3.07 -0.94,0 -1.47,-0.39 -1.78,-0.91 h -0.02 v 3.11 h -0.98 z m 2.56,0.71 c -1.07,0 -1.58,1.08 -1.58,2.14 0,0.95 0.46,2.11 1.57,2.11 1.05,0 1.49,-1.26 1.47,-2.15 0.02,-1.02 -0.4,-2.1 -1.46,-2.1 z"
   id="path206"
   inkscape:connector-curvature="0"
   style="fill:#1f619c" />
	<path
   class="st4"
   d="m 201.75,148.46 h -1.41 v 3.1 c 0,0.66 0.38,1.01 0.83,1.01 0.3,0 0.52,-0.1 0.67,-0.2 v 0.89 c -0.22,0.07 -0.52,0.16 -0.84,0.16 -1.01,0 -1.64,-0.51 -1.64,-1.65 v -3.31 h -1.2 v -0.85 h 1.2 v -1.31 l 0.98,-0.33 v 1.65 h 1.41 z"
   id="path208"
   inkscape:connector-curvature="0"
   style="fill:#1f619c" />
	<path
   class="st4"
   d="m 203.31,148.02 c 0.49,-0.31 1.08,-0.53 1.76,-0.53 1.53,0 2.14,0.8 2.14,2.35 v 2.35 c 0,0.65 0.02,0.95 0.04,1.11 h -0.92 v -0.73 h -0.02 c -0.23,0.35 -0.75,0.87 -1.65,0.87 -1.15,0 -1.96,-0.53 -1.96,-1.77 0,-1.42 1.46,-1.87 2.48,-1.87 0.39,0 0.66,0 1.04,0.02 0,-0.98 -0.33,-1.48 -1.32,-1.48 -0.55,0 -1.15,0.22 -1.55,0.58 z m 2.92,2.57 c -0.21,0 -0.42,-0.02 -0.63,-0.02 -0.53,0 -1.85,0.09 -1.85,1.09 0,0.6 0.54,0.92 0.99,0.92 0.97,0 1.48,-0.64 1.48,-1.49 v -0.5 z"
   id="path210"
   inkscape:connector-curvature="0"
   style="fill:#1f619c" />
	<path
   class="st4"
   d="m 208.96,144.95 h 0.98 v 4.97 l 2.14,-2.3 h 1.34 l -2.48,2.51 2.79,3.16 h -1.41 l -2.38,-2.91 v 2.91 h -0.98 z"
   id="path212"
   inkscape:connector-curvature="0"
   style="fill:#1f619c" />
	<path
   class="st4"
   d="m 218.94,153.06 c -0.38,0.14 -0.8,0.37 -1.68,0.37 -1.89,0 -2.76,-1.22 -2.76,-3.07 0,-1.68 0.99,-2.87 2.5,-2.87 1.78,0 2.35,1.38 2.35,3.2 h -3.8 c 0,1.12 0.83,1.89 1.76,1.89 0.65,0 1.4,-0.36 1.64,-0.57 v 1.05 z m -0.64,-3.15 c 0,-0.87 -0.48,-1.58 -1.33,-1.58 -0.96,0 -1.36,0.85 -1.43,1.58 z"
   id="path214"
   inkscape:connector-curvature="0"
   style="fill:#1f619c" />
</g>
<g
   id="g244"
   transform="translate(122)">
	<g
   id="g222">
		<circle
   class="st5"
   cx="254.17"
   cy="28.07"
   r="8.3100004"
   id="circle218"
   style="fill:#1f619c;stroke:#ffffff;stroke-miterlimit:10" />
		<line
   class="st6"
   x1="254.17"
   y1="61.580002"
   x2="254.17"
   y2="79.760002"
   id="line220"
   style="fill:#005c98;stroke:#ffffff;stroke-linecap:round;stroke-linejoin:round;stroke-miterlimit:10" />
	</g>
	<g
   id="g232">
		<circle
   class="st5"
   cx="269.60999"
   cy="28.07"
   r="8.3100004"
   id="circle224"
   style="fill:#1f619c;stroke:#ffffff;stroke-miterlimit:10" />
		<g
   id="g230">
			<path
   class="st7"
   d="m 278.17,36.65 h -32.55 c -2.44,0 -4.43,1.99 -4.43,4.43 v 16.08 c 0,2.43 1.99,4.42 4.41,4.43 v 13.49 c 0,2.43 1.99,4.43 4.43,4.43 h 8.28 c 1.47,0 2.77,-0.73 3.58,-1.85 0.81,1.11 2.11,1.85 3.58,1.85 h 8.28 c 2.43,0 4.43,-1.99 4.43,-4.43 v -13.5 c 2.43,-0.01 4.41,-2 4.41,-4.43 V 41.08 c 0,-2.44 -1.99,-4.43 -4.42,-4.43 z"
   id="path226"
   inkscape:connector-curvature="0"
   style="fill:#1f619c;stroke:#ffffff;stroke-linecap:round;stroke-linejoin:round;stroke-miterlimit:10" />
			<line
   class="st6"
   x1="269.60999"
   y1="61.580002"
   x2="269.60999"
   y2="79.760002"
   id="line228"
   style="fill:#005c98;stroke:#ffffff;stroke-linecap:round;stroke-linejoin:round;stroke-miterlimit:10" />
		</g>
	</g>
	<g
   id="g242">
		<circle
   class="st5"
   cx="261.89001"
   cy="32.330002"
   r="8.3100004"
   id="circle234"
   style="fill:#1f619c;stroke:#ffffff;stroke-miterlimit:10" />
		<g
   id="g240">
			<path
   class="st7"
   d="m 270.45,40.9 h -17.11 c -2.43,0 -4.43,1.99 -4.43,4.43 v 16.08 c 0,2.43 1.99,4.42 4.41,4.43 v 13.49 c 0,2.43 1.99,4.43 4.43,4.43 h 8.28 c 2.43,0 4.43,-1.99 4.43,-4.43 v -13.5 c 2.43,-0.01 4.41,-2 4.41,-4.43 V 45.33 c 0,-2.43 -1.99,-4.43 -4.42,-4.43 z"
   id="path236"
   inkscape:connector-curvature="0"
   style="fill:#1f619c;stroke:#ffffff;stroke-linecap:round;stroke-linejoin:round;stroke-miterlimit:10" />
			<line
   class="st6"
   x1="261.89001"
   y1="65.830002"
   x2="261.89001"
   y2="84.010002"
   id="line238"
   style="fill:#005c98;stroke:#ffffff;stroke-linecap:round;stroke-linejoin:round;stroke-miterlimit:10" />
		</g>
	</g>
</g>
<g
   transform="matrix(0.4896594,0,0,0.4896594,-5.04605,-34.40041)"
   id="g4154"
   style="stroke:none"><path
     style="fill:#ffffff;stroke:none;stroke-width:1.29439998;stroke-linecap:round;stroke-linejoin:round;stroke-miterlimit:10"
     inkscape:connector-curvature="0"
     d="M 20,169 H 253 V 327 H 20 Z"
     id="rect4122"
     class="st1" /><g
     id="g4152"
     style="stroke:none"><path
       style="fill:#243f9c;stroke:none;stroke-width:0.49700001;stroke-linecap:round;stroke-linejoin:round;stroke-miterlimit:10"
       inkscape:connector-curvature="0"
       d="M 24.5,173 H 249 V 322.7 H 24.5 Z"
       id="rect4124"
       class="st12" /><path
       style="fill:#fcec00;stroke:none"
       inkscape:connector-curvature="0"
       id="polygon4148"
       d="m 196.7,245.7 -4.3,3.2 1.2,6.3 -4.9,-3.6 -4.9,3.5 1.2,-6.2 -4.2,-3.2 h 6 l 1.9,-5.8 2,5.8 z m -111.8,3.2 -4.2,-3.2 h 5.9 l 2,-5.8 1.9,5.8 h 6 l -4.2,3.2 1.2,6.3 -4.9,-3.6 -4.9,3.5 z m 105.4,22.2 -4.3,3.3 1.2,6.2 -4.9,-3.5 -4.9,3.4 1.2,-6.1 -4.2,-3.3 h 6 l 1.9,-5.8 2,5.9 z m -99.6,3.3 -4.2,-3.3 h 6 l 1.9,-5.8 2,5.9 5.9,-0.1 -4.2,3.3 1.2,6.2 -4.9,-3.5 -4.9,3.4 z m 99.6,-53.8 -4.3,3.2 1.2,6.3 -4.9,-3.6 -4.9,3.5 1.2,-6.2 -4.2,-3.2 h 6 l 1.9,-5.8 2,5.8 z m -99.6,3.2 -4.2,-3.2 h 6 l 1.9,-5.8 2,5.8 h 5.9 l -4.2,3.2 1.2,6.3 -4.9,-3.6 -4.9,3.5 z m 30.3,65.6 -4.2,3.2 1.1,6.3 -4.8,-3.6 -4.9,3.5 1.1,-6.2 -4.2,-3.2 h 6 l 2,-5.8 1.9,5.8 z m 38.3,3.2 -4.2,-3.2 h 6 l 1.9,-5.8 2,5.8 h 6 l -4.3,3.2 1.2,6.3 -4.9,-3.6 -4.9,3.5 z m -38.3,-91.1 -4.2,3.2 1.1,6.3 -4.8,-3.6 -4.9,3.5 1.1,-6.2 -4.2,-3.2 h 6 l 2,-5.8 1.9,5.8 z m 38.3,3.2 -4.2,-3.2 h 6 l 1.9,-5.8 2,5.8 h 6 l -4.3,3.2 1.2,6.3 -4.9,-3.6 -4.9,3.5 z m -12.7,-9.7 -4.3,3.2 1.2,6.3 -4.9,-3.6 -4.9,3.5 1.2,-6.2 -4.2,-3.2 h 6 l 1.9,-5.8 2,5.8 z m -11.7,104.5 -4.2,-3.3 h 6 l 1.9,-5.8 2,5.8 h 6 l -4.3,3.3 1.2,6.2 -4.9,-3.5 -4.9,3.4 z" /></g></g></svg>